<svg width="71" height="70" viewBox="0 0 71 70" fill="none" xmlns="http://www.w3.org/2000/svg">
<rect x="0.75" width="70" height="70" rx="25" fill="#FBFFDA"/>
<path d="M35.75 51.6667C44.9548 51.6667 52.4167 44.2048 52.4167 35C52.4167 25.7953 44.9548 18.3334 35.75 18.3334C26.5453 18.3334 19.0833 25.7953 19.0833 35C19.0833 44.2048 26.5453 51.6667 35.75 51.6667Z" fill="#B2E840"/>
<path d="M27.0833 38.3334H44.4167C44.7084 38.3351 44.9945 38.4134 45.2465 38.5604C45.4985 38.7074 45.7074 38.918 45.8525 39.171C45.9976 39.4241 46.0738 39.7108 46.0733 40.0025C46.0729 40.2943 45.9959 40.5807 45.85 40.8334C44.8256 42.6052 43.353 44.0764 41.5802 45.0992C39.8074 46.122 37.7967 46.6604 35.75 46.6604C33.7033 46.6604 31.6926 46.122 29.9198 45.0992C28.147 44.0764 26.6745 42.6052 25.65 40.8334C25.5041 40.5807 25.4271 40.2943 25.4267 40.0025C25.4263 39.7108 25.5024 39.4241 25.6475 39.171C25.7926 38.918 26.0015 38.7074 26.2535 38.5604C26.5055 38.4134 26.7916 38.3351 27.0833 38.3334V38.3334ZM29.9167 33.3334C29.2536 33.3334 28.6177 33.07 28.1489 32.6011C27.6801 32.1323 27.4167 31.4964 27.4167 30.8334C27.4167 30.1703 27.6801 29.5344 28.1489 29.0656C28.6177 28.5968 29.2536 28.3334 29.9167 28.3334C30.5797 28.3334 31.2156 28.5968 31.6844 29.0656C32.1533 29.5344 32.4167 30.1703 32.4167 30.8334C32.4167 31.4964 32.1533 32.1323 31.6844 32.6011C31.2156 33.07 30.5797 33.3334 29.9167 33.3334ZM41.5833 33.3334C40.9203 33.3334 40.2844 33.07 39.8156 32.6011C39.3467 32.1323 39.0833 31.4964 39.0833 30.8334C39.0833 30.1703 39.3467 29.5344 39.8156 29.0656C40.2844 28.5968 40.9203 28.3334 41.5833 28.3334C42.2464 28.3334 42.8823 28.5968 43.3511 29.0656C43.8199 29.5344 44.0833 30.1703 44.0833 30.8334C44.0833 31.4964 43.8199 32.1323 43.3511 32.6011C42.8823 33.07 42.2464 33.3334 41.5833 33.3334V33.3334Z" fill="#6E733C"/>
</svg>
