<svg width="70" height="70" viewBox="0 0 70 70" fill="none" xmlns="http://www.w3.org/2000/svg">
<rect width="70" height="70" rx="25" fill="#FBFFDA"/>
<path d="M36.6667 23L41.5333 34.3334C41.6231 34.5441 41.6685 34.771 41.6667 35V48.3334C41.6667 49.2174 41.3155 50.0653 40.6904 50.6904C40.0652 51.3155 39.2174 51.6667 38.3333 51.6667H28.3333C27.0304 51.6147 25.7667 51.2066 24.6795 50.4867C23.5922 49.7668 22.7232 48.7626 22.1667 47.5834L18.45 39C18.3659 38.7881 18.3262 38.5612 18.3333 38.3334V35C18.3333 33.674 18.8601 32.4022 19.7978 31.4645C20.7355 30.5268 22.0072 30 23.3333 30H30V23.3334C30 22.0073 30.5268 20.7355 31.4645 19.7978C32.4021 18.8602 33.6739 18.3334 35 18.3334C35.442 18.3334 35.8659 18.509 36.1785 18.8215C36.4911 19.1341 36.6667 19.558 36.6667 20V23Z" fill="#B2E840"/>
<path d="M50 33.3334H46.6667C45.7462 33.3334 45 34.0796 45 35V50C45 50.9205 45.7462 51.6667 46.6667 51.6667H50C50.9205 51.6667 51.6667 50.9205 51.6667 50V35C51.6667 34.0796 50.9205 33.3334 50 33.3334Z" fill="#6E733C"/>
</svg>
