<svg width="70" height="70" viewBox="0 0 70 70" fill="none" xmlns="http://www.w3.org/2000/svg">
<rect width="70" height="70" rx="25" fill="#FBFFDA"/>
<path d="M25 33.3334V28.3334C25 26.5 26.5 25 28.3333 25H33.3333C33.7754 25 34.1993 24.8244 34.5118 24.5119C34.8244 24.1993 35 23.7754 35 23.3334V21.6667C35 20.7827 35.3512 19.9348 35.9763 19.3097C36.6014 18.6846 37.4493 18.3334 38.3333 18.3334C39.2174 18.3334 40.0652 18.6846 40.6904 19.3097C41.3155 19.9348 41.6667 20.7827 41.6667 21.6667V23.3334C41.6667 23.7754 41.8423 24.1993 42.1548 24.5119C42.4674 24.8244 42.8913 25 43.3333 25H48.3333C49.2174 25 50.0652 25.3512 50.6904 25.9764C51.3155 26.6015 51.6667 27.4493 51.6667 28.3334V33.3334C51.6667 33.7754 51.4911 34.1993 51.1785 34.5119C50.8659 34.8244 50.442 35 50 35H48.3333C47.4493 35 46.6014 35.3512 45.9763 35.9764C45.3512 36.6015 45 37.4493 45 38.3334C45 39.2174 45.3512 40.0653 45.9763 40.6904C46.6014 41.3155 47.4493 41.6667 48.3333 41.6667H50C50.442 41.6667 50.8659 41.8423 51.1785 42.1549C51.4911 42.4674 51.6667 42.8913 51.6667 43.3334V48.3334C51.6667 49.2174 51.3155 50.0653 50.6904 50.6904C50.0652 51.3155 49.2174 51.6667 48.3333 51.6667H43.3333C42.8913 51.6667 42.4674 51.4911 42.1548 51.1786C41.8423 50.866 41.6667 50.4421 41.6667 50V48.3334C41.6667 47.4493 41.3155 46.6015 40.6904 45.9764C40.0652 45.3512 39.2174 45 38.3333 45C37.4493 45 36.6014 45.3512 35.9763 45.9764C35.3512 46.6015 35 47.4493 35 48.3334V50C35 50.4421 34.8244 50.866 34.5118 51.1786C34.1993 51.4911 33.7754 51.6667 33.3333 51.6667H28.3333C27.4493 51.6667 26.6014 51.3155 25.9763 50.6904C25.3512 50.0653 25 49.2174 25 48.3334V43.3334C25 42.8913 24.8244 42.4674 24.5118 42.1549C24.1993 41.8423 23.7754 41.6667 23.3333 41.6667H21.6667C20.7826 41.6667 19.9348 41.3155 19.3096 40.6904C18.6845 40.0653 18.3333 39.2174 18.3333 38.3334C18.3333 37.4493 18.6845 36.6015 19.3096 35.9764C19.9348 35.3512 20.7826 35 21.6667 35H23.3333C23.7754 35 24.1993 34.8244 24.5118 34.5119C24.8244 34.1993 25 33.7754 25 33.3334Z" fill="#B2E840"/>
<path d="M51.6667 43.3333V48.3333C51.6667 49.2173 51.3155 50.0652 50.6904 50.6903C50.0652 51.3154 49.2174 51.6666 48.3333 51.6666H43.3333C42.8913 51.6666 42.4674 51.491 42.1548 51.1785C41.8423 50.8659 41.6667 50.442 41.6667 50V48.3333C41.6667 47.4492 41.3155 46.6014 40.6904 45.9763C40.0652 45.3512 39.2174 45 38.3333 45C37.4493 45 36.6014 45.3512 35.9763 45.9763C35.3512 46.6014 35 47.4492 35 48.3333V50C35 50.442 34.8244 50.8659 34.5118 51.1785C34.1993 51.491 33.7754 51.6666 33.3333 51.6666H28.3333C27.4493 51.6666 26.6014 51.3154 25.9763 50.6903C25.3512 50.0652 25 49.2173 25 48.3333V43.3333C25 42.8913 24.8244 42.4673 24.5118 42.1548C24.1993 41.8422 23.7754 41.6666 23.3333 41.6666H21.6667C20.7826 41.6666 19.9348 41.3154 19.3096 40.6903C18.6845 40.0652 18.3333 39.2173 18.3333 38.3333C18.3333 37.4492 18.6845 36.6014 19.3096 35.9763C19.9348 35.3511 20.7826 35 21.6667 35H23.3333C23.7754 35 24.1993 34.8244 24.5118 34.5118C24.8244 34.1992 25 33.7753 25 33.3333V32.3333C25.9 31.9333 26.9667 31.6666 28.2833 31.6666C34.95 31.6666 34.95 38.3333 41.65 38.3333C43.05 38.3333 44.15 38.0333 45.0833 37.5833C44.9705 38.0721 44.9694 38.5801 45.0801 39.0694C45.1909 39.5586 45.4107 40.0166 45.7231 40.4091C46.0355 40.8016 46.4325 41.1186 46.8844 41.3363C47.3364 41.554 47.8317 41.6669 48.3333 41.6666H50C50.442 41.6666 50.8659 41.8422 51.1785 42.1548C51.4911 42.4673 51.6667 42.8913 51.6667 43.3333Z" fill="#6E733C"/>
</svg>
