<svg width="71" height="70" viewBox="0 0 71 70" fill="none" xmlns="http://www.w3.org/2000/svg">
<rect x="0.5" width="70" height="70" rx="25" fill="#FBFFDA"/>
<path d="M33.4167 50.3166L32 50.7833C29.9833 51.4499 27.7833 50.5333 26.8333 48.6333L26.1667 47.2999C25.5199 46.0238 24.4798 44.9895 23.2 44.3499L21.8667 43.6833C20.9483 43.223 20.2259 42.448 19.8313 41.4996C19.4366 40.5512 19.3959 39.4925 19.7167 38.5166L20.1833 37.0833C20.6285 35.7301 20.6285 34.2698 20.1833 32.9166L19.7167 31.4999C19.05 29.4833 19.9667 27.2833 21.8667 26.3333L23.2 25.6666C24.4762 25.0199 25.5105 23.9798 26.15 22.6999L26.8167 21.3666C27.2769 20.4482 28.0519 19.7259 29.0003 19.3312C29.9488 18.9366 31.0074 18.8959 31.9833 19.2166L33.4167 19.6833C34.7699 20.1285 36.2301 20.1285 37.5833 19.6833L39 19.2166C41.0167 18.5499 43.2167 19.4666 44.1667 21.3666L44.8333 22.6999C45.48 23.9761 46.5202 25.0104 47.8 25.6499L49.1333 26.3166C50.0517 26.7769 50.7741 27.5519 51.1687 28.5003C51.5634 29.4487 51.6041 30.5074 51.2833 31.4833L50.8167 32.9166C50.3715 34.2698 50.3715 35.7301 50.8167 37.0833L51.2833 38.4999C51.95 40.5166 51.0333 42.7166 49.1333 43.6666L47.8 44.3333C46.5238 44.98 45.4895 46.0201 44.85 47.2999L44.1833 48.6333C43.723 49.5516 42.9481 50.274 41.9996 50.6687C41.0512 51.0633 39.9926 51.104 39.0167 50.7833L37.5833 50.3166C36.2301 49.8714 34.7699 49.8714 33.4167 50.3166V50.3166Z" fill="#B2E840"/>
<path d="M30 42.8333C29.8567 43.0243 29.6741 43.1823 29.4644 43.2966C29.2548 43.4109 29.023 43.4788 28.7848 43.4958C28.5466 43.5127 28.3076 43.4782 28.0839 43.3947C27.8602 43.3112 27.657 43.1807 27.4882 43.0118C27.3193 42.843 27.1887 42.6398 27.1052 42.4161C27.0217 42.1924 26.9873 41.9533 27.0042 41.7151C27.0211 41.477 27.089 41.2452 27.2033 41.0355C27.3176 40.8259 27.4757 40.6432 27.6667 40.5L41 27.1666C41.321 26.9259 41.718 26.809 42.1182 26.8375C42.5183 26.8659 42.8948 27.0378 43.1785 27.3214C43.4622 27.6051 43.6341 27.9816 43.6625 28.3818C43.6909 28.782 43.5741 29.179 43.3334 29.5L30 42.8333ZM41.3334 43.3333C40.6703 43.3333 40.0344 43.0699 39.5656 42.6011C39.0967 42.1322 38.8333 41.4963 38.8333 40.8333C38.8333 40.1703 39.0967 39.5344 39.5656 39.0655C40.0344 38.5967 40.6703 38.3333 41.3334 38.3333C41.9964 38.3333 42.6323 38.5967 43.1011 39.0655C43.57 39.5344 43.8334 40.1703 43.8334 40.8333C43.8334 41.4963 43.57 42.1322 43.1011 42.6011C42.6323 43.0699 41.9964 43.3333 41.3334 43.3333V43.3333ZM29.6667 31.6666C29.0036 31.6666 28.3678 31.4032 27.8989 30.9344C27.4301 30.4656 27.1667 29.8297 27.1667 29.1666C27.1667 28.5036 27.4301 27.8677 27.8989 27.3989C28.3678 26.93 29.0036 26.6666 29.6667 26.6666C30.3297 26.6666 30.9656 26.93 31.4344 27.3989C31.9033 27.8677 32.1667 28.5036 32.1667 29.1666C32.1667 29.8297 31.9033 30.4656 31.4344 30.9344C30.9656 31.4032 30.3297 31.6666 29.6667 31.6666Z" fill="#6E733C"/>
</svg>
