<svg width="70" height="70" viewBox="0 0 70 70" fill="none" xmlns="http://www.w3.org/2000/svg">
<rect width="70" height="70" rx="25" fill="#FBFFDA"/>
<path d="M35 51.6667C44.2047 51.6667 51.6667 44.2048 51.6667 35C51.6667 25.7953 44.2047 18.3334 35 18.3334C25.7953 18.3334 18.3333 25.7953 18.3333 35C18.3333 44.2048 25.7953 51.6667 35 51.6667Z" fill="#B2E840"/>
<path d="M42.45 45H27.55C27.2265 45.0025 26.9094 44.9108 26.6371 44.7361C26.3649 44.5614 26.1494 44.3113 26.0168 44.0162C25.8843 43.7212 25.8405 43.3939 25.8908 43.0744C25.9411 42.7548 26.0833 42.4568 26.3 42.2167C27.3915 40.9871 28.7312 40.0029 30.2308 39.3289C31.7304 38.6549 33.3559 38.3064 35 38.3064C36.6441 38.3064 38.2696 38.6549 39.7692 39.3289C41.2688 40.0029 42.6085 40.9871 43.7 42.2167C43.9167 42.4568 44.0589 42.7548 44.1092 43.0744C44.1595 43.3939 44.1157 43.7212 43.9832 44.0162C43.8506 44.3113 43.6351 44.5614 43.3629 44.7361C43.0906 44.9108 42.7735 45.0025 42.45 45V45ZM29.1667 33.3334C28.5036 33.3334 27.8677 33.07 27.3989 32.6011C26.9301 32.1323 26.6667 31.4964 26.6667 30.8334C26.6667 30.1703 26.9301 29.5344 27.3989 29.0656C27.8677 28.5968 28.5036 28.3334 29.1667 28.3334C29.8297 28.3334 30.4656 28.5968 30.9344 29.0656C31.4033 29.5344 31.6667 30.1703 31.6667 30.8334C31.6667 31.4964 31.4033 32.1323 30.9344 32.6011C30.4656 33.07 29.8297 33.3334 29.1667 33.3334ZM40.8333 33.3334C40.1703 33.3334 39.5344 33.07 39.0656 32.6011C38.5967 32.1323 38.3333 31.4964 38.3333 30.8334C38.3333 30.1703 38.5967 29.5344 39.0656 29.0656C39.5344 28.5968 40.1703 28.3334 40.8333 28.3334C41.4964 28.3334 42.1323 28.5968 42.6011 29.0656C43.0699 29.5344 43.3333 30.1703 43.3333 30.8334C43.3333 31.4964 43.0699 32.1323 42.6011 32.6011C42.1323 33.07 41.4964 33.3334 40.8333 33.3334V33.3334Z" fill="#6E733C"/>
</svg>
