<svg width="70" height="70" viewBox="0 0 70 70" fill="none" xmlns="http://www.w3.org/2000/svg">
<rect width="70" height="70" rx="25" fill="#FBFFDA"/>
<path d="M19.3166 37.35C19.0052 37.043 18.7579 36.6772 18.5891 36.2738C18.4203 35.8703 18.3333 35.4374 18.3333 35V26.6667C18.3333 24.4566 19.2113 22.337 20.7741 20.7742C22.3369 19.2113 24.4565 18.3334 26.6666 18.3334H34.9833C35.8666 18.3334 36.7166 18.6667 37.35 19.3167L50.6833 32.65C51.3042 33.2746 51.6526 34.1194 51.6526 35C51.6526 35.8807 51.3042 36.7255 50.6833 37.35L37.35 50.6834C36.7254 51.3042 35.8806 51.6527 35 51.6527C34.1194 51.6527 33.2745 51.3042 32.65 50.6834L19.3166 37.35ZM26.6666 30C27.5507 30 28.3985 29.6489 29.0237 29.0237C29.6488 28.3986 30 27.5508 30 26.6667C30 25.7827 29.6488 24.9348 29.0237 24.3097C28.3985 23.6846 27.5507 23.3334 26.6666 23.3334C25.7826 23.3334 24.9347 23.6846 24.3096 24.3097C23.6845 24.9348 23.3333 25.7827 23.3333 26.6667C23.3333 27.5508 23.6845 28.3986 24.3096 29.0237C24.9347 29.6489 25.7826 30 26.6666 30V30Z" fill="#B2E840"/>
<path d="M35 45L45 35L38.3333 28.3334L28.3333 38.35L35 45Z" fill="#6E733C"/>
</svg>
