<svg width="71" height="70" viewBox="0 0 71 70" fill="none" xmlns="http://www.w3.org/2000/svg">
<rect x="0.25" width="70" height="70" rx="25" fill="#FBFFDA"/>
<path d="M30.25 51.6667C30.5667 51.4334 30.8667 51.1667 31.15 50.9L43.7 38.3334H48.5833C49.4674 38.3334 50.3152 38.6846 50.9404 39.3097C51.5655 39.9348 51.9167 40.7827 51.9167 41.6667V48.3334C51.9167 49.2174 51.5655 50.0653 50.9404 50.6904C50.3152 51.3155 49.4674 51.6667 48.5833 51.6667H30.25ZM21.9167 18.3334H28.5833C29.4674 18.3334 30.3152 18.6846 30.9404 19.3097C31.5655 19.9348 31.9167 20.7827 31.9167 21.6667V45C31.9167 46.7682 31.2143 48.4638 29.964 49.7141C28.7138 50.9643 27.0181 51.6667 25.25 51.6667C23.4819 51.6667 21.7862 50.9643 20.5359 49.7141C19.2857 48.4638 18.5833 46.7682 18.5833 45V21.6667C18.5833 19.8334 20.0833 18.3334 21.9167 18.3334ZM25.25 47.5C25.913 47.5 26.5489 47.2366 27.0178 46.7678C27.4866 46.299 27.75 45.6631 27.75 45C27.75 44.337 27.4866 43.7011 27.0178 43.2323C26.5489 42.7634 25.913 42.5 25.25 42.5C24.587 42.5 23.9511 42.7634 23.4822 43.2323C23.0134 43.7011 22.75 44.337 22.75 45C22.75 45.6631 23.0134 46.299 23.4822 46.7678C23.9511 47.2366 24.587 47.5 25.25 47.5V47.5Z" fill="#B2E840"/>
<path d="M35.25 46.6277V27.761L38.7 24.311C39.0096 24.0011 39.3772 23.7552 39.7819 23.5875C40.1865 23.4197 40.6203 23.3334 41.0583 23.3334C41.4964 23.3334 41.9301 23.4197 42.3348 23.5875C42.7395 23.7552 43.1071 24.0011 43.4167 24.311L48.1333 29.0277C48.4433 29.3372 48.6891 29.7049 48.8569 30.1095C49.0246 30.5142 49.111 30.9479 49.111 31.386C49.111 31.824 49.0246 32.2578 48.8569 32.6625C48.6891 33.0671 48.4433 33.4348 48.1333 33.7443L35.25 46.6277Z" fill="#6E733C"/>
</svg>
