<svg width="70" height="70" viewBox="0 0 70 70" fill="none" xmlns="http://www.w3.org/2000/svg">
<rect width="70" height="70" rx="25" fill="#FBFFDA"/>
<path d="M45 36.6667V48.3334C45 48.7754 44.8244 49.1994 44.5118 49.5119C44.1993 49.8245 43.7754 50.0001 43.3333 50.0001C42.8913 50.0001 42.4674 49.8245 42.1548 49.5119C41.8423 49.1994 41.6667 48.7754 41.6667 48.3334V36.6667H36.6667C36.3405 36.6622 36.0228 36.5619 35.753 36.3785C35.4832 36.1951 35.2732 35.9365 35.1489 35.6348C35.0247 35.3331 34.9918 35.0017 35.0542 34.6814C35.1166 34.3612 35.2716 34.0664 35.5 33.8334L42.1667 27.1667C42.4782 26.8614 42.8971 26.6903 43.3333 26.6903C43.7696 26.6903 44.1885 26.8614 44.5 27.1667L51.1667 33.8334C51.3951 34.0664 51.5501 34.3612 51.6125 34.6814C51.6749 35.0017 51.6419 35.3331 51.5177 35.6348C51.3935 35.9365 51.1835 36.1951 50.9137 36.3785C50.6439 36.5619 50.3262 36.6622 50 36.6667H45Z" fill="#6E733C"/>
<path d="M20 20H41.6666C42.1087 20 42.5326 20.1756 42.8452 20.4882C43.1577 20.8007 43.3333 21.2246 43.3333 21.6667C43.3333 22.1087 43.1577 22.5326 42.8452 22.8452C42.5326 23.1577 42.1087 23.3333 41.6666 23.3333H20C19.558 23.3333 19.134 23.1577 18.8215 22.8452C18.5089 22.5326 18.3333 22.1087 18.3333 21.6667C18.3333 21.2246 18.5089 20.8007 18.8215 20.4882C19.134 20.1756 19.558 20 20 20V20ZM20 26.6667H35C35.442 26.6667 35.8659 26.8423 36.1785 27.1548C36.491 27.4674 36.6666 27.8913 36.6666 28.3333C36.6666 28.7754 36.491 29.1993 36.1785 29.5118C35.8659 29.8244 35.442 30 35 30H20C19.558 30 19.134 29.8244 18.8215 29.5118C18.5089 29.1993 18.3333 28.7754 18.3333 28.3333C18.3333 27.8913 18.5089 27.4674 18.8215 27.1548C19.134 26.8423 19.558 26.6667 20 26.6667V26.6667ZM20 33.3333H28.3333C28.7753 33.3333 29.1993 33.5089 29.5118 33.8215C29.8244 34.1341 30 34.558 30 35C30 35.442 29.8244 35.866 29.5118 36.1785C29.1993 36.4911 28.7753 36.6667 28.3333 36.6667H20C19.558 36.6667 19.134 36.4911 18.8215 36.1785C18.5089 35.866 18.3333 35.442 18.3333 35C18.3333 34.558 18.5089 34.1341 18.8215 33.8215C19.134 33.5089 19.558 33.3333 20 33.3333V33.3333Z" fill="#B2E840"/>
</svg>
